<?xml version="1.0" standalone="no"?>
<!DOCTYPE svg PUBLIC "-//W3C//DTD SVG 1.1//EN" "http://www.w3.org/Graphics/SVG/1.1/DTD/svg11.dtd" >
<svg xmlns="http://www.w3.org/2000/svg">
<metadata></metadata>
<defs>
<font id="MetaMediumLFRoman" horiz-adv-x="1146" >
<font-face units-per-em="2048" ascent="1638" descent="-410" />
<missing-glyph horiz-adv-x="460" />
<glyph horiz-adv-x="0" />
<glyph horiz-adv-x="2048" />
<glyph unicode=" "  horiz-adv-x="460" />
<glyph unicode="&#x09;" horiz-adv-x="460" />
<glyph unicode="&#xa0;" horiz-adv-x="460" />
<glyph unicode="!" horiz-adv-x="585" d="M143 131q0 62 43.5 106t106.5 44q61 0 105 -44t44 -106q0 -63 -44.5 -107t-106.5 -44q-63 0 -105.5 44t-42.5 107zM154 1407l272 39l-49 -1012h-172z" />
<glyph unicode="&#x22;" horiz-adv-x="907" d="M143 905v547h209v-547h-209zM555 905v547h209v-547h-209z" />
<glyph unicode="#" horiz-adv-x="1138" d="M61 424v158h203l39 288h-182v158h205l57 422h170l-59 -422h229l59 422h168l-57 -422h184v-158h-205l-41 -288h185v-158h-205l-59 -424h-170l59 424h-229l-60 -424h-168l58 424h-181zM432 582h232l38 288h-229z" />
<glyph unicode="$" horiz-adv-x="1185" d="M82 98l90 183q101 -58 190 -86.5t203 -28.5q133 0 203 63t70 160q0 154 -195 211l-172 51q-103 31 -165.5 68.5t-100.5 91.5q-68 92 -68 219q0 170 109 283t295 139v156h147v-156q102 -6 202.5 -41.5t180.5 -93.5l-106 -166q-94 57 -168.5 83t-157.5 26 q-119 0 -180.5 -53.5t-61.5 -139.5q0 -130 164 -174l193 -53q169 -46 256 -150q94 -108 94 -260q0 -127 -65 -227.5t-166.5 -156t-223.5 -69.5v-180h-147v178q-223 6 -420 123z" />
<glyph unicode="%" horiz-adv-x="1708" d="M61 1083q0 159 92.5 255t245.5 96q160 0 252 -93t92 -260q0 -162 -92 -254q-94 -94 -250 -94q-158 0 -249 94t-91 256zM246 1090q0 -121 37.5 -173.5t119.5 -52.5q79 0 116.5 53t37.5 162q0 118 -38 171t-120 53q-153 0 -153 -213zM416 0l717 1413h163l-718 -1413h-162z M965 332q0 159 92.5 254.5t245.5 95.5q162 0 253 -93.5t91 -256.5q0 -158 -91.5 -254t-250.5 -96q-158 0 -249 94t-91 256zM1149 340q0 -123 37 -174t121 -51q79 0 116 52t37 161q0 119 -38 171t-119 52q-154 0 -154 -211z" />
<glyph unicode="&#x26;" horiz-adv-x="1411" d="M102 354q0 124 68.5 207.5t204.5 149.5q-101 81 -141.5 151.5t-40.5 161.5q0 144 109.5 239t279.5 95q172 0 284.5 -87.5t112.5 -232.5q0 -112 -71.5 -190t-209.5 -143l279 -271q29 73 29 250h188q0 -144 -16 -230t-54 -169l287 -285h-309l-109 109q-66 -66 -168 -101 t-227 -35q-238 0 -367 103t-129 278zM344 360q0 -104 69 -163.5t193 -59.5q171 0 254 99l-364 356q-152 -85 -152 -232zM426 1044q0 -52 31 -100.5t116 -126.5q168 83 168 221q0 72 -44 117t-113 45q-70 0 -114 -41.5t-44 -114.5z" />
<glyph unicode="'" horiz-adv-x="495" d="M143 905v547h209v-547h-209z" />
<glyph unicode="(" horiz-adv-x="620" d="M102 659q0 299 72 484q125 315 426 450l57 -125q-62 -42 -107.5 -83t-73.5 -80t-43 -66t-30 -63q-73 -170 -73 -512q0 -280 43 -453q38 -153 102.5 -256t186.5 -166l-60 -123q-139 51 -246.5 160t-169.5 260q-84 212 -84 573z" />
<glyph unicode=")" horiz-adv-x="622" d="M-41 -209q195 110 277 352q55 165 55 492q0 119 -8 201t-31 200q-28 146 -95.5 251.5t-193.5 180.5l57 125q133 -53 238 -157t170 -240q92 -193 92 -561q0 -129 -16.5 -264.5t-48.5 -231.5q-55 -162 -168.5 -286.5t-268.5 -186.5z" />
<glyph unicode="*" horiz-adv-x="933" d="M51 1092l55 161l279 -98v295h168v-295l278 94l52 -162l-279 -92l176 -241l-137 -105l-178 248l-172 -242l-135 103l176 237z" />
<glyph unicode="+" horiz-adv-x="1228" d="M102 475v213h408v410h209v-410h407v-213h-407v-409h-209v409h-408z" />
<glyph unicode="," horiz-adv-x="577" d="M102 -193q62 20 101 61.5t39 84.5q0 10 -12 22t-33 21q-40 15 -64 51.5t-24 85.5q0 69 46.5 116.5t114.5 47.5q80 0 132.5 -63t52.5 -162q0 -125 -76 -226t-195 -141z" />
<glyph unicode="-" horiz-adv-x="653" d="M102 453v209h449v-209h-449z" />
<glyph unicode="." horiz-adv-x="567" d="M123 137q0 68 46 115t112 47q68 0 115.5 -47.5t47.5 -114.5q0 -69 -47 -118.5t-112 -49.5q-67 0 -114.5 49.5t-47.5 118.5z" />
<glyph unicode="/" horiz-adv-x="901" d="M102 -309l539 1870h158l-541 -1870h-156z" />
<glyph unicode="0" d="M94 682q0 149 36.5 278t100 220.5t151.5 143.5t189 52q89 0 163 -31t125.5 -85t90 -122.5t60.5 -148.5t32.5 -157.5t10.5 -155.5q0 -317 -134 -512t-350 -195q-87 0 -160 32t-123.5 88t-88.5 126.5t-60 152t-32.5 159.5t-10.5 155zM346 684q0 -197 29 -319 q27 -116 78 -172t118 -56q64 0 114.5 51.5t78.5 141.5q39 127 39 342q0 177 -31 313q-54 221 -199 221q-118 0 -180 -172q-47 -125 -47 -350z" />
<glyph unicode="1" d="M160 1065l411 289h160v-1172h191v-182h-650v182h238v910q-108 -65 -139 -80q-106 -52 -156 -68z" />
<glyph unicode="2" d="M125 1178q115 100 232 149t251 49q171 0 281 -109.5t110 -277.5q0 -192 -192 -420q-19 -24 -47.5 -54.5t-50 -53t-61 -62.5t-58.5 -59l-30.5 -30.5l-31 -31l-27.5 -27.5t-27 -26.5t-22.5 -20.5t-19.5 -16.5t-14 -9.5q82 8 198 8h420l-49 -186h-835v150q152 130 327 323 q144 158 204 274t60 211q0 105 -57 162.5t-147 57.5q-57 0 -114 -21.5t-93 -45.5t-92 -67z" />
<glyph unicode="3" d="M98 1204q90 76 216.5 124t242.5 48q182 0 300 -98t118 -248q0 -220 -225 -303q113 -34 186.5 -117.5t73.5 -195.5q0 -132 -88 -241t-234 -169q-159 -67 -389 -67q-78 0 -139 8l-54 155q64 -12 134 -12q68 0 135 10.5t136 36t121 64t85 99.5t33 136q0 43 -11.5 76.5 t-28.5 55.5t-47 37t-54.5 23t-65.5 12t-65.5 4.5t-67.5 0.5h-68v178h119q266 0 266 183q0 81 -54.5 131.5t-150.5 50.5q-88 0 -155 -29.5t-154 -91.5z" />
<glyph unicode="4" d="M80 256v160l434 942h238l-349 -756q-15 -32 -36.5 -72.5t-35.5 -65.5l-14 -24q31 4 58 4h270l47 -2q-2 35 -2 45q0 76 10 203l25 293l176 45v-539l-2 -49q37 4 55 4h101v-188h-101l-59 4q6 -33 6 -78v-213l-215 -39v267l2 63q-29 -4 -72 -4h-536z" />
<glyph unicode="5" d="M170 119q88 -29 176 -29q173 0 287.5 94t114.5 236q0 116 -70.5 177.5t-190.5 61.5q-137 0 -280 -53l65 740h660l-35 -191h-416l-32 -332q76 11 114 11q184 0 307 -107t123 -287q0 -134 -73 -248.5t-197 -177.5q-154 -80 -352 -80q-77 0 -154 17z" />
<glyph unicode="6" d="M94 537q0 188 90 363t240 304q193 169 453 244l51 -156q-275 -99 -420 -268q-55 -64 -83 -119.5t-52 -142.5q46 40 113 62t141 22q179 0 301.5 -120.5t122.5 -299.5q0 -194 -134.5 -325.5t-332.5 -131.5q-217 0 -353.5 158t-136.5 410zM344 467q0 -61 12 -115.5 t37 -103.5t73 -78t112 -29q105 0 167 76.5t62 204.5q0 106 -55.5 176t-159.5 70q-112 0 -242 -86q-6 -105 -6 -115z" />
<glyph unicode="7" d="M147 1147l52 199h868l-43 -207q-220 -332 -344 -590q-154 -323 -188 -567l-259 -66q94 407 312 817q139 263 272 418q-72 -4 -129 -4h-541z" />
<glyph unicode="8" d="M76 348q0 122 72.5 216.5t189.5 135.5q-95 39 -157 126t-62 188q0 75 27 137t72 103t106 69t126 40.5t134 12.5q194 0 315 -93.5t121 -244.5q0 -213 -272 -315q160 -66 241.5 -147.5t81.5 -202.5q0 -95 -46.5 -175t-121 -130.5t-164.5 -78.5t-180 -28q-92 0 -176 23 t-153.5 68.5t-111.5 122t-42 173.5zM319 365q0 -107 71.5 -171.5t191.5 -64.5q107 0 174 57t67 148q0 95 -67 147q-71 57 -264 137q-173 -92 -173 -253zM346 1034q0 -34 16 -65.5t39 -54t58 -44t62.5 -34.5t62.5 -27q196 98 196 229q0 82 -57 128t-160 46q-98 0 -157.5 -49 t-59.5 -129z" />
<glyph unicode="9" d="M102 907q0 202 138 336.5t344 134.5q113 0 203 -42t147 -115t87 -168t30 -205q0 -191 -79.5 -365t-230.5 -315q-105 -99 -238 -174t-265 -103l-119 138q88 17 166 55q124 57 230.5 145.5t170.5 192.5q30 51 49 98q-96 -55 -205 -55q-183 0 -305.5 126t-122.5 316z M350 911q0 -125 60.5 -197.5t164.5 -72.5q109 0 209 90q21 77 21 156q0 145 -62.5 230t-167.5 85q-101 0 -163 -79.5t-62 -211.5z" />
<glyph unicode=":" horiz-adv-x="604" d="M143 129q0 68 46.5 116.5t113.5 47.5q64 0 110 -48t46 -116q0 -66 -47 -112t-113 -46q-65 0 -110.5 46t-45.5 112zM145 758q0 67 46 114.5t112 49.5q65 0 111.5 -47t46.5 -113q0 -67 -47 -113.5t-113 -46.5q-65 0 -110.5 46t-45.5 110z" />
<glyph unicode=";" horiz-adv-x="641" d="M143 -199q62 21 101 62t39 82q0 17 -21 32t-45.5 26.5t-45.5 43.5t-21 80q0 70 46.5 118t114.5 48q82 0 134.5 -63.5t52.5 -163.5q0 -123 -77 -224t-196 -141zM152 760q0 66 45.5 114t109.5 48q66 1 114 -47.5t48 -114.5q0 -65 -46.5 -112.5t-111.5 -47.5 q-66 0 -112.5 47.5t-46.5 112.5z" />
<glyph unicode="&#x3c;" horiz-adv-x="753" d="M41 612l451 590l180 -145l-338 -445l338 -446l-180 -141z" />
<glyph unicode="=" horiz-adv-x="1300" d="M102 332v207h1096v-207h-1096zM102 705v206h1096v-206h-1096z" />
<glyph unicode="&#x3e;" horiz-adv-x="751" d="M82 166l336 446l-336 445l180 145l449 -590l-449 -587z" />
<glyph unicode="?" horiz-adv-x="948" d="M82 1296q63 56 163 99t222 43q152 0 255 -89t103 -237q0 -39 -8.5 -75.5t-19.5 -63t-32 -53.5t-34.5 -42t-39.5 -35t-34 -25.5t-30 -20.5q-138 -93 -138 -260q0 -33 7 -80h-193q-16 72 -16 127q0 175 159 303q11 9 41 30t44 33t33 33.5t27.5 46.5t8.5 55 q0 75 -50.5 116.5t-127.5 41.5q-127 0 -242 -92zM270 131q0 64 44.5 108t109.5 44q62 0 108 -44t46 -108q0 -65 -46 -111.5t-110 -46.5q-63 0 -107.5 46.5t-44.5 111.5z" />
<glyph unicode="@" horiz-adv-x="1865" d="M102 420q0 178 64 337t175 274t269.5 182t339.5 67q170 0 319.5 -51t258.5 -143t172 -227t63 -294q0 -263 -135.5 -428.5t-329.5 -165.5q-114 0 -171 50.5t-64 128.5q-57 -68 -138.5 -111t-168.5 -43q-47 0 -91.5 18.5t-80.5 53.5t-58 93.5t-22 131.5q0 99 23 191.5 t69.5 173t113 141t159 95t200.5 34.5q142 0 281 -74q-16 -52 -30 -106t-28.5 -117.5t-23 -103t-25 -117.5t-22.5 -107q-24 -119 -5.5 -156.5t89.5 -37.5q110 0 189 131t79 325q0 118 -45 224t-124.5 184t-197.5 124t-256 46q-145 0 -270 -61t-208 -161.5t-130 -231 t-47 -269.5q0 -177 82.5 -319t223.5 -220t312 -78q162 0 295 45l37 -139q-142 -47 -332 -47q-130 0 -250 31.5t-222 95t-177.5 153t-118.5 212.5t-43 266zM692 285q0 -79 26 -109.5t81 -30.5q73 0 153 71t107 196l80 366q-35 15 -84 15q-92 0 -164.5 -47t-114.5 -123 t-63 -162.5t-21 -175.5z" />
<glyph unicode="A" horiz-adv-x="1181" d="M-4 0l465 1419h272l453 -1419h-258l-115 373h-459l-114 -373h-244zM412 569h348q-10 23 -85 298t-83 317h-2q-145 -521 -178 -615z" />
<glyph unicode="B" horiz-adv-x="1230" d="M164 0v1417h375q158 0 232 -14t140 -55q160 -103 160 -279q0 -115 -63 -195t-181 -114q85 -20 146 -59.5t93.5 -89.5t47 -101.5t14.5 -108.5q0 -207 -139.5 -304t-413.5 -97h-411zM393 838h201q70 0 106 10t68 43q55 58 55 141q0 61 -31.5 109t-82.5 67q-49 17 -134 17 h-182v-387zM397 195h213q129 0 193.5 63.5t64.5 165.5q0 75 -37 132.5t-96 74.5q-42 12 -131 12h-207v-448z" />
<glyph unicode="C" horiz-adv-x="1161" d="M102 688q0 251 95 430q80 153 218.5 239.5t303.5 86.5q103 0 196 -29.5t156 -81.5l-108 -155q-109 79 -242 79q-91 0 -164 -44t-119 -126q-73 -128 -73 -372q0 -234 55 -353q45 -99 127 -149.5t188 -50.5q140 0 254 90l111 -150q-165 -125 -387 -125q-278 0 -449 205 q-162 197 -162 506z" />
<glyph unicode="D" horiz-adv-x="1271" d="M164 0v1417h295q204 0 331.5 -44t225.5 -156q153 -178 153 -512q0 -315 -149 -506q-89 -114 -198 -156.5t-308 -42.5h-350zM401 193h156q184 0 267 120t83 367q0 151 -19 254.5t-71 173.5q-49 67 -109.5 95t-156.5 28h-150v-1038z" />
<glyph unicode="E" horiz-adv-x="1021" d="M164 0v1417h786l-30 -192h-521v-387h437v-195h-433v-442h568v-201h-807z" />
<glyph unicode="F" horiz-adv-x="882" d="M164 0v1417h749l-28 -192h-486v-385h396v-191h-396v-649h-235z" />
<glyph unicode="G" horiz-adv-x="1308" d="M102 698q0 428 267 627q145 111 350 111q247 0 422 -150l-119 -147q-139 108 -299 108q-358 0 -358 -561q0 -296 104 -418q42 -50 113.5 -78t154.5 -28q107 0 189 45v368h-242l-33 193h514v-668q-195 -118 -442 -118q-301 0 -463 200q-82 100 -120 224.5t-38 291.5z" />
<glyph unicode="H" horiz-adv-x="1282" d="M164 0v1417h233v-569h484v569h237v-1417h-237v655h-484v-655h-233z" />
<glyph unicode="I" horiz-adv-x="569" d="M164 0v1417h242v-1417h-242z" />
<glyph unicode="J" horiz-adv-x="579" d="M-18 -182q54 30 98 73.5t65 85.5q19 39 26 94.5t7 170.5v1175h238v-1155q0 -169 -18 -249t-66 -146q-83 -115 -240 -174z" />
<glyph unicode="K" horiz-adv-x="1169" d="M164 0v1417h239v-1417h-239zM406 756l460 661h291l-491 -657l524 -760h-307z" />
<glyph unicode="L" horiz-adv-x="948" d="M164 0v1417h239v-1222h525l-39 -195h-725z" />
<glyph unicode="M" horiz-adv-x="1671" d="M123 0l129 1417h313l217 -803q28 -100 54 -241q15 105 51 237l223 807h313l125 -1417h-231l-66 879q-10 150 -10 245q-32 -150 -55 -227l-258 -897h-201l-235 858q-40 140 -62 268q0 -65 -14 -270l-62 -856h-231z" />
<glyph unicode="N" horiz-adv-x="1288" d="M164 0v1417h266l344 -692q46 -90 88 -199t58 -166l6 7q-21 252 -21 403l-4 647h223v-1417h-247l-318 666q-137 284 -180 419l-6 -6q10 -113 14 -393l8 -686h-231z" />
<glyph unicode="O" horiz-adv-x="1388" d="M102 709q0 345 161 537t431 192q146 0 260 -55.5t186 -155t109 -231.5t37 -289q0 -335 -153.5 -532.5t-427.5 -197.5q-119 0 -217.5 36t-169.5 101t-120 156t-72.5 201.5t-23.5 237.5zM365 723q0 -283 78.5 -425t254.5 -142q161 0 240.5 127.5t79.5 408.5 q0 136 -15.5 235t-52 175t-101 114.5t-157.5 38.5q-173 0 -250 -134t-77 -398z" />
<glyph unicode="P" horiz-adv-x="1136" d="M164 0v1417h377q149 0 223.5 -15t136.5 -52q94 -56 144.5 -148t50.5 -209q0 -136 -61.5 -240t-165.5 -158t-232 -54h-240v-541h-233zM397 729h185q130 0 192 61.5t62 188.5q0 117 -58 178q-67 70 -196 70h-185v-498z" />
<glyph unicode="Q" horiz-adv-x="1388" d="M102 711q0 342 161 534.5t429 192.5q190 0 325 -91.5t202 -255t67 -384.5q0 -233 -75 -398t-216 -254q51 -20 156 -84q31 -19 58.5 -31.5t62.5 -21.5q32 -8 71 -8h5q41 1 90 10l-64 -158q-52 -22 -106 -24h-8q-50 0 -98 17q-51 18 -89.5 37.5t-83.5 49.5 q-152 101 -293 138q-192 0 -328 96.5t-201 259t-65 375.5zM365 723q0 -157 22 -267.5t66.5 -175t104 -93.5t140.5 -29q106 0 175 51.5t106 170.5t37 312q0 287 -74 425t-252 138q-169 0 -247 -132t-78 -400z" />
<glyph unicode="R" horiz-adv-x="1173" d="M164 0v1417h432q115 0 205 -32t145 -88t83 -128t28 -157q0 -160 -96.5 -274.5t-255.5 -114.5q64 -34 219 -283l209 -340h-281l-123 219q-75 133 -130 213t-112 137q-22 22 -41 32t-51 11v-612h-231zM395 778h121q92 0 146 14t86 46q63 63 63 172q0 110 -67 163.5 t-220 53.5h-129v-449z" />
<glyph unicode="S" horiz-adv-x="1202" d="M92 100l90 181q102 -59 191.5 -88t191.5 -29q131 0 205 59.5t74 165.5q0 78 -51 129t-160 82l-152 43q-199 57 -274 170q-60 88 -60 207q0 187 134 303.5t348 116.5q256 0 448 -135l-106 -166q-99 59 -174.5 83.5t-159.5 24.5q-105 0 -168 -52.5t-63 -139.5 q0 -66 42 -104.5t146 -69.5l168 -50q161 -46 254.5 -147.5t93.5 -255.5q0 -90 -36 -171t-104 -145t-175 -101.5t-238 -37.5q-255 0 -465 127z" />
<glyph unicode="T" horiz-adv-x="970" d="M31 1221v196h981l-31 -196h-356v-1221h-236v1221h-358z" />
<glyph unicode="U" horiz-adv-x="1288" d="M154 395v1022h237v-952q0 -159 59 -224t193 -65q256 0 256 289v952h236v-1020q0 -196 -130 -309t-362 -113q-109 0 -194 22t-139.5 60t-90.5 92.5t-50.5 114.5t-14.5 131z" />
<glyph unicode="V" horiz-adv-x="1142" d="M-20 1417h258l256 -803q25 -80 43.5 -151t24.5 -102l5 -31h4q16 86 86 297l261 790h245l-487 -1423h-219z" />
<glyph unicode="W" horiz-adv-x="1671" d="M10 1417h252l141 -659q22 -102 41 -215.5t27 -176.5l8 -63h6q41 266 78 438l148 676h264l147 -704q16 -75 33.5 -175t26.5 -162l10 -63h6q47 299 82 461l135 643h246l-336 -1425h-270l-146 657q-21 95 -38 197.5t-24 157.5l-7 55h-6q-37 -232 -72 -404l-137 -663h-277z " />
<glyph unicode="X" horiz-adv-x="1105" d="M-20 0l434 760l-381 657h286l228 -438l223 438h279l-361 -641l438 -776h-282l-293 561l-283 -561h-288z" />
<glyph unicode="Y" horiz-adv-x="1060" d="M-41 1417h285l213 -444q19 -40 38 -85.5t28 -71.5l9 -25q41 100 78 178l217 448h275l-453 -846v-571h-243v573z" />
<glyph unicode="Z" horiz-adv-x="1087" d="M82 0v172l553 920q19 32 42.5 67t37.5 53l14 19q-70 -8 -154 -8h-466l53 194h831v-178l-551 -930q-14 -24 -34.5 -54t-33.5 -49l-14 -18q60 5 142 5h504l-60 -193h-864z" />
<glyph unicode="[" horiz-adv-x="591" d="M164 -317v1818h387v-155h-186v-1512h186v-151h-387z" />
<glyph unicode="\" horiz-adv-x="839" d="M20 1489l187 63l612 -1591l-188 -61z" />
<glyph unicode="]" horiz-adv-x="591" d="M41 -166h186v1512h-186v155h387v-1818h-387v151z" />
<glyph unicode="^" horiz-adv-x="1228" d="M102 651l398 799h229l397 -799h-229l-283 586l-282 -586h-230z" />
<glyph unicode="_" horiz-adv-x="1024" d="M0 -154h1024v-102h-1024v102z" />
<glyph unicode="`" horiz-adv-x="643" d="M61 1356l103 190l418 -270l-70 -129z" />
<glyph unicode="a" horiz-adv-x="1054" d="M92 281q0 179 130.5 269.5t381.5 90.5h70v55q0 97 -28.5 140t-115.5 43q-42 0 -89.5 -12.5t-85 -29.5t-68.5 -34.5t-49 -30.5l-17 -12l-100 162q118 74 221 107.5t219 33.5q248 0 316 -172q13 -32 15 -80q1 -27 2 -77q0 -41 -1 -97l-4 -297v-22q1 -90 15 -132 q16 -46 75 -86l-117 -143q-104 41 -141 139q-113 -127 -285 -127t-258 85t-86 227zM336 293q0 -74 38 -117t105 -43q53 0 103 29.5t84 79.5l4 245q-25 2 -41 2q-163 0 -228 -47t-65 -149z" />
<glyph unicode="b" horiz-adv-x="1140" d="M137 0q27 70 27 231v977q0 164 -27 250l234 51q16 -99 16 -206v-242q0 -30 -1.5 -54.5t-3.5 -34.5l-1 -9l8 -2q103 100 246 100q186 0 294.5 -141.5t108.5 -384.5q0 -248 -115.5 -403t-297.5 -155q-156 0 -252 119q-12 -66 -29 -96h-207zM389 260q86 -90 193 -90 t154.5 84t47.5 278q0 60 -5 107t-18 91.5t-35 74.5t-57.5 47.5t-82.5 17.5q-113 0 -197 -104v-506z" />
<glyph unicode="c" horiz-adv-x="935" d="M102 506q0 136 38.5 245t103.5 175.5t145.5 101.5t169.5 35q87 0 153.5 -25t133.5 -88l-113 -149q-89 80 -174 80q-113 0 -164 -105q-43 -87 -43 -289q0 -206 70 -282q54 -60 137 -60q106 0 209 103l106 -137q-72 -72 -150 -105t-181 -33q-211 0 -326 140.5t-115 392.5z " />
<glyph unicode="d" horiz-adv-x="1136" d="M102 508q0 243 120.5 395t309.5 152q134 0 224 -94q-6 79 -6 169v379l223 -34v-1115q0 -276 33 -360h-207q-12 27 -19 80q-103 -103 -254 -103q-197 0 -310.5 143.5t-113.5 387.5zM352 510q0 -181 46.5 -262.5t168.5 -81.5q60 0 109 28.5t74 69.5v527q-77 83 -189 83 q-107 0 -158 -88.5t-51 -275.5z" />
<glyph unicode="e" horiz-adv-x="1050" d="M102 516q0 136 30.5 232.5t98.5 173.5q122 139 318 139q167 0 285 -107q69 -63 102 -168t33 -282v-47h-619v-17q0 -58 12 -107t39.5 -93.5t79.5 -69.5t125 -25q140 0 258 103l88 -137q-164 -138 -372 -138q-220 0 -349 147t-129 396zM352 623h383q0 125 -50.5 196.5 t-135.5 71.5q-95 0 -146 -70.5t-51 -197.5z" />
<glyph unicode="f" horiz-adv-x="628" d="M68 881v155h100q-6 58 -6 154q0 156 85.5 235.5t229.5 79.5q130 0 234 -59l-74 -143q-73 36 -125 36q-59 0 -93 -38.5t-34 -106.5v-158h270l-57 -155h-211v-881h-223v881h-96z" />
<glyph unicode="g" horiz-adv-x="1097" d="M82 -111q0 22 5 49.5t10 44.5l5 17h213q-16 -41 -16 -74q0 -72 59 -110.5t168 -38.5q117 0 181.5 44t64.5 118q0 82 -67.5 112.5t-219.5 30.5q-136 0 -212 19t-102 51.5t-26 87.5q0 70 50 108.5t147 69.5q-236 68 -236 293q0 158 114 254t300 96q81 0 181.5 -26.5 t134.5 -26.5q102 0 188 71l104 -141q-79 -68 -180 -68q-47 0 -80 11q9 -9 21.5 -26t29.5 -62.5t17 -92.5q0 -138 -107 -227.5t-286 -89.5q-60 -22 -100 -48.5t-40 -49.5q0 -16 5 -23.5t34 -12.5t75 -6t145 -1q65 0 124.5 -17t109.5 -51t80 -92.5t30 -134.5 q0 -163 -125 -251.5t-336 -88.5q-138 0 -239.5 29t-162.5 93.5t-61 159.5zM340 711q0 -87 46.5 -130.5t131.5 -43.5q88 0 133 45t45 131q0 178 -178 178q-86 0 -132 -46t-46 -134z" />
<glyph unicode="h" horiz-adv-x="1155" d="M143 1458l228 49q20 -84 20 -243v-222l-4 -116q150 135 318 135q88 0 155.5 -36.5t95.5 -90.5q20 -38 27.5 -81.5t7.5 -121.5v-731h-219v705q0 93 -31.5 129t-99.5 36q-59 0 -126.5 -34.5t-123.5 -92.5v-743h-227v1233q0 132 -21 225z" />
<glyph unicode="i" horiz-adv-x="555" d="M131 1339q0 63 43.5 107.5t106.5 44.5q61 0 104 -44t43 -108q0 -62 -44.5 -105.5t-107.5 -43.5q-61 0 -103 43.5t-42 105.5zM164 0v1020l227 41v-1061h-227z" />
<glyph unicode="j" horiz-adv-x="555" d="M25 -303q80 56 109.5 127t29.5 199v997l227 41v-1036q0 -215 -76 -312q-76 -95 -194 -147zM127 1339q0 62 44 107t105 45t105.5 -44t44.5 -104q0 -64 -44.5 -108.5t-107.5 -44.5q-62 0 -104.5 43t-42.5 106z" />
<glyph unicode="k" horiz-adv-x="1046" d="M141 1456l226 55q20 -110 20 -274v-1237h-223v1206q0 135 -23 250zM403 586l308 450h272l-354 -438l438 -598h-272z" />
<glyph unicode="l" horiz-adv-x="557" d="M143 1456l232 51q18 -71 18 -284v-879q0 -98 5 -131.5t18 -54.5q9 -14 30.5 -19.5t42.5 2.5l37 -139q-64 -25 -135 -25q-47 0 -84 12.5t-60.5 29.5t-40 46t-24.5 52t-12.5 57t-5 51t-0.5 45v883q0 174 -21 303z" />
<glyph unicode="m" horiz-adv-x="1634" d="M127 1006l205 57q31 -52 37 -133q128 131 274 131q75 0 134.5 -33t113.5 -119q149 152 309 152q270 0 270 -303v-758h-221v717q0 90 -22.5 122.5t-83.5 32.5q-94 0 -219 -118v-754h-215v711q0 91 -24.5 125t-88.5 34q-102 0 -213 -102v-768h-219v743q0 182 -37 263z" />
<glyph unicode="n" horiz-adv-x="1118" d="M125 1008l205 57q37 -70 37 -147q86 73 161 108t156 35q124 0 197 -74t73 -213v-774h-223v688q0 104 -26.5 142t-92.5 38q-49 0 -112.5 -32.5t-114.5 -83.5v-752h-221v762q0 146 -39 246z" />
<glyph unicode="o" horiz-adv-x="1099" d="M92 516q0 -249 123.5 -397t329.5 -148q218 0 340.5 148.5t122.5 398.5t-124 395.5t-335 145.5q-210 0 -333.5 -147t-123.5 -396zM342 502q0 147 25.5 234.5t70 121t115.5 33.5q207 0 207 -369q0 -142 -27 -228.5t-72 -119.5t-114 -33q-107 0 -156 86t-49 275z" />
<glyph unicode="p" horiz-adv-x="1136" d="M143 1026l207 37q15 -51 17 -127q49 59 121 91t155 32q80 0 149.5 -31t124 -92.5t86 -162.5t31.5 -232q0 -261 -107.5 -411t-303.5 -150q-137 0 -246 83q4 -45 4 -102v-346l-217 -55v1208q0 144 -21 258zM381 250q92 -92 192 -92q114 0 167 86.5t53 271.5 q0 181 -43.5 268.5t-149.5 87.5q-127 0 -219 -106v-516z" />
<glyph unicode="q" horiz-adv-x="1136" d="M102 496q0 268 111 417.5t307 149.5q81 0 153 -34t111 -93q2 54 19 100h194q-24 -94 -24 -295v-1128l-213 -55v385l4 137q-105 -105 -244 -105q-86 0 -160.5 32.5t-132.5 95t-91.5 163.5t-33.5 230zM346 532q0 -107 15 -180.5t45 -114t68 -58t91 -17.5q57 0 109 31.5 t84 80.5v496q-34 46 -88 74t-111 28q-213 0 -213 -340z" />
<glyph unicode="r" horiz-adv-x="696" d="M127 1010l207 53q39 -73 39 -164q120 166 264 166q44 0 80 -16l-70 -209q-40 14 -63 14q-69 0 -124.5 -45t-70.5 -109v-700h-225v731q0 178 -37 279z" />
<glyph unicode="s" horiz-adv-x="970" d="M72 86l80 162q189 -109 335 -109q74 0 121 41t47 105q0 59 -39.5 92.5t-128.5 52.5l-125 27q-117 25 -182 100t-65 184q0 146 107 238t278 92q173 0 342 -90l-74 -156q-143 76 -254 76q-72 0 -115 -36.5t-43 -96.5q0 -48 31 -75.5t109 -47.5l129 -33q264 -67 264 -288 q0 -157 -116.5 -255t-303.5 -98q-190 0 -397 115z" />
<glyph unicode="t" horiz-adv-x="677" d="M49 881v155h115q0 178 10 256l232 56q-19 -160 -19 -312h248l-60 -155h-190v-582q0 -97 26.5 -131.5t100.5 -34.5q38 0 96 21l29 -136q-99 -45 -203 -45q-73 0 -126.5 20.5t-84 58t-45 84.5t-14.5 104v641h-115z" />
<glyph unicode="u" horiz-adv-x="1110" d="M154 317v703l221 41v-694q0 -43 3 -73.5t12 -60.5t25 -48.5t44 -30t67 -11.5q57 0 117 40t86 96v741l217 41v-780q0 -44 6.5 -81t16 -59.5t19 -38.5t16.5 -22l6 -6l-156 -107q-65 48 -90 129q-112 -127 -295 -127q-85 0 -151.5 28t-106.5 75q-31 37 -44 93t-13 152z" />
<glyph unicode="v" horiz-adv-x="968" d="M10 1028l232 33l180 -559q16 -48 31.5 -106t23.5 -92l8 -34h4q23 123 62 240l172 526h235l-376 -1040h-199z" />
<glyph unicode="w" horiz-adv-x="1429" d="M20 1022l224 31l112 -502q13 -57 26.5 -125t20.5 -108l7 -39h6q20 135 59 278l133 479h221l117 -467q19 -75 35.5 -148.5t23.5 -110.5l7 -36h6q24 158 51 279l107 483h233l-293 -1040h-211l-127 477q-15 55 -31.5 125.5t-26.5 113.5l-9 44h-4q-17 -103 -68 -293 l-125 -467h-211z" />
<glyph unicode="x" horiz-adv-x="976" d="M-20 0l385 561l-299 445l243 49q114 -190 189 -336q24 56 83 171.5t81 145.5h262l-306 -471l379 -565h-282q-26 41 -117.5 198.5t-108.5 188.5q-29 -58 -112 -201t-113 -186h-284z" />
<glyph unicode="y" horiz-adv-x="989" d="M10 1020l230 39l190 -631q7 -27 20 -81t24.5 -101.5t12.5 -50.5q38 151 78 280l172 561h242l-367 -1059q-35 -103 -65.5 -166t-76 -118.5t-108.5 -86.5t-153 -48l-74 145q113 31 176 93t105 204h-72q-29 118 -98 322z" />
<glyph unicode="z" horiz-adv-x="940" d="M72 0v150l520 727h-479v159h733v-159l-492 -719h514l-65 -158h-731z" />
<glyph unicode="{" horiz-adv-x="712" d="M41 498v186q22 1 47 6.5t53.5 19.5t51.5 33.5t38 51t15 69.5v359q0 135 68.5 206.5t172.5 71.5h185v-186h-101q-40 0 -66.5 -12.5t-38.5 -36t-16 -45.5t-4 -52v-344q0 -64 -18.5 -110t-50 -70t-60 -35.5t-61.5 -15.5v-8q26 -3 48.5 -8.5t50 -21t46.5 -39t32 -64.5t13 -95 v-344q0 -30 4 -52t16 -45.5t38.5 -36.5t66.5 -13h101v-184h-185q-103 0 -172 71t-69 209v356q0 38 -15 70t-38 51t-51.5 32.5t-53.5 19t-47 6.5z" />
<glyph unicode="|" horiz-adv-x="532" d="M164 -424v1974h205v-1974h-205z" />
<glyph unicode="}" horiz-adv-x="712" d="M41 -133h98q41 0 68 13t39 36.5t16 45.5t4 52v342q0 55 13.5 97t32.5 65.5t47.5 38.5t50.5 20.5t49 8.5v10q-193 21 -193 227v346q0 30 -4 52t-16 45.5t-39 36t-68 12.5h-98v186h186q100 0 170 -72t70 -208v-357q0 -47 21.5 -83.5t55 -56t66.5 -29.5t62 -11v-186 q-23 -1 -48.5 -6.5t-54 -19t-51 -32.5t-37 -50.5t-14.5 -70.5v-358q0 -137 -68.5 -207.5t-173.5 -70.5h-184v184z" />
<glyph unicode="~" horiz-adv-x="1138" d="M102 621q21 37 42 65t51.5 55.5t70.5 42.5t88 15q76 0 219 -66q17 -7 55.5 -25t59.5 -27t51 -17.5t54 -8.5q30 0 55.5 11t49.5 36t36.5 41.5t36.5 51.5l65 -170q-46 -82 -104 -131.5t-148 -49.5q-33 0 -76.5 12.5t-64.5 21t-78 34.5q-9 4 -37.5 17.5t-39.5 18.5t-35 14.5 t-38.5 14t-33.5 8t-35 3.5q-56 0 -96.5 -37t-81.5 -102z" />
<glyph unicode="&#xa1;" horiz-adv-x="583" d="M143 918q0 64 43.5 107.5t106.5 43.5q61 0 104 -43.5t43 -105.5q0 -63 -44 -107.5t-107 -44.5q-61 0 -103.5 44t-42.5 106zM156 -399l51 1009h170l53 -968z" />
<glyph unicode="&#xa2;" horiz-adv-x="944" d="M102 510q0 101 22 187.5t58 147t85 106.5t101 72t107 36v180h156v-178q48 -2 107.5 -30.5t115.5 -78.5l-111 -147q-82 82 -182 82q-106 0 -162.5 -107t-56.5 -282q0 -163 58.5 -255.5t166.5 -92.5q62 0 117 28t92 74l107 -137q-62 -62 -121 -92t-131 -39v-193h-154v193 q-181 21 -272 155q-103 144 -103 371z" />
<glyph unicode="&#xa3;" horiz-adv-x="1191" d="M82 0v199h205v456h-197v176h197v158q0 216 129 351t348 135q244 0 387 -132l-166 -178q-95 92 -199 92q-249 0 -249 -299v-127h323v-176h-323v-456h512v-199h-967z" />
<glyph unicode="&#xa4;" horiz-adv-x="915" d="M84 193l88 139q-61 77 -61 221q0 139 67 227l-94 142l197 114q30 -48 79 -137q58 8 84 8q16 0 99 -10q10 24 28.5 58.5t31.5 57.5l13 23l189 -114l-86 -136q67 -74 67 -235q0 -129 -65 -215l92 -143l-192 -117q-62 99 -80 137q-83 -10 -92 -10q-16 0 -32.5 2t-37 5.5 t-29.5 4.5l-80 -139zM295 563q0 -142 41 -186q42 -45 113 -45q151 0 151 219q0 116 -38 170.5t-120 54.5q-85 0 -116 -52.5t-31 -160.5z" />
<glyph unicode="&#xa5;" horiz-adv-x="1142" d="M0 1417h285l213 -444q20 -42 38.5 -87.5t27.5 -69.5l9 -25q41 100 78 178l217 448h275l-326 -604h252v-170h-340l-39 -72v-108h379v-170h-379v-293h-244v293h-366v170h366v108l-40 72h-326v170h242z" />
<glyph unicode="&#xa6;" horiz-adv-x="532" d="M164 383h205v-807h-205v807zM164 743v807h205v-807h-205z" />
<glyph unicode="&#xa7;" horiz-adv-x="1130" d="M82 -51l217 104q22 -75 89 -114t151 -39q47 0 88 13t71.5 46t30.5 82q0 28 -14.5 53t-32.5 41.5t-54.5 36.5t-59.5 30t-70 29q-155 65 -246 127q-137 95 -137 252q0 190 194 299q-145 92 -145 240q0 67 24.5 124t65.5 96t95.5 66.5t114 40.5t120.5 13q63 0 122.5 -11 t116 -34t103.5 -64.5t75 -97.5l-213 -121q-24 60 -78.5 92.5t-119.5 32.5q-69 0 -118.5 -35.5t-49.5 -101.5q0 -84 110 -141q58 -27 207 -93q56 -26 91.5 -44.5t81.5 -51t72.5 -64t45.5 -78t19 -99.5q0 -85 -49 -156.5t-130 -112.5q127 -94 127 -250q0 -74 -28 -135.5 t-75 -102.5t-108.5 -70t-126 -41.5t-131.5 -12.5q-329 0 -446 252zM346 659q0 -31 11 -57t24 -42t40.5 -34t43 -25.5t49.5 -23.5l203 -94q44 22 71 62.5t27 86.5q0 33 -14 61.5t-40.5 50.5t-50 36.5t-57.5 30.5l-194 92q-113 -54 -113 -144z" />
<glyph unicode="&#xa8;" horiz-adv-x="909" d="M102 1290q0 60 40.5 102t97.5 42t97 -42t40 -102q0 -59 -40 -101t-97 -42t-97.5 42t-40.5 101zM530 1290q0 60 41 102t99 42q56 0 96.5 -42t40.5 -102q0 -59 -41 -101t-98 -42t-97.5 42t-40.5 101z" />
<glyph unicode="&#xa9;" horiz-adv-x="1720" d="M102 727q0 156 60.5 297.5t162 243t242 161.5t293.5 60t293.5 -60t242 -161.5t162 -243t60.5 -297.5q0 -157 -60.5 -298.5t-162 -243t-241.5 -161t-294 -59.5t-294 59.5t-241.5 161t-162 243t-60.5 298.5zM276 727q0 -167 78 -308.5t212.5 -223.5t293.5 -82t294 82 t213.5 223.5t78.5 308.5t-78.5 307.5t-213 221.5t-294.5 81t-294 -81t-212 -221.5t-78 -307.5zM500 711q0 158 57 266q49 94 136.5 146.5t191.5 52.5q62 0 120.5 -19t94.5 -49l-78 -117q-65 47 -135 47q-43 0 -83 -20t-63 -53q-47 -70 -47 -220q0 -168 35 -229 q53 -96 164 -96q79 0 147 55l78 -108q-99 -80 -237 -80q-175 0 -279 119q-102 117 -102 305z" />
<glyph unicode="&#xaa;" horiz-adv-x="843" d="M72 479v135h700v-135h-700zM92 989q0 268 383 268h53v56q0 67 -24.5 96t-83.5 29q-104 0 -234 -88l-73 123q181 104 331 104q136 0 203 -74q52 -60 49 -174l-6 -293q-1 -82 11.5 -115.5t56.5 -66.5l-84 -111q-86 37 -111 109q-45 -52 -94.5 -75t-120.5 -23 q-127 0 -191.5 64.5t-64.5 170.5zM272 997q0 -57 29 -88.5t80 -31.5q39 0 76.5 22t64.5 59l2 187q-22 2 -30 2q-136 0 -185 -43q-37 -34 -37 -107z" />
<glyph unicode="&#xab;" horiz-adv-x="1038" d="M61 504l310 465l151 -103l-235 -362l235 -361l-151 -102zM514 504l311 465l152 -103l-238 -362l238 -361l-152 -102z" />
<glyph unicode="&#xac;" horiz-adv-x="1075" d="M102 422v190h871v-477h-219v287h-652z" />
<glyph unicode="&#xad;" horiz-adv-x="653" d="M102 453v209h449v-209h-449z" />
<glyph unicode="&#xae;" horiz-adv-x="1720" d="M102 727q0 156 60.5 297.5t162 243t242 161.5t293.5 60t293.5 -60t242 -161.5t162 -243t60.5 -297.5q0 -157 -60.5 -298.5t-162 -243t-241.5 -161t-294 -59.5t-294 59.5t-241.5 161t-162 243t-60.5 298.5zM276 727q0 -167 78 -308.5t212.5 -223.5t293.5 -82t294 82 t213.5 223.5t78.5 308.5t-78.5 307.5t-213 221.5t-294.5 81t-294 -81t-212 -221.5t-78 -307.5zM594 305v854h317q114 0 183 -68.5t69 -181.5q0 -96 -56 -164.5t-134 -70.5q23 -20 35 -37q22 -27 73 -110t91 -153l40 -69h-202q-57 98 -80 141q-65 119 -92 159.5t-50 49.5 q-14 7 -26 7v-357h-168zM762 791h57q97 0 129 28q33 33 33 86q0 81 -61 105q-36 12 -97 12h-61v-231z" />
<glyph unicode="&#xaf;" horiz-adv-x="706" d="M51 1376v144h604v-144h-604z" />
<glyph unicode="&#xb0;" horiz-adv-x="804" d="M61 1083q0 159 92.5 255t245.5 96q161 0 252.5 -93.5t91.5 -259.5q0 -162 -92 -255t-250 -93t-249 94t-91 256zM246 1090q0 -118 37 -172t120 -54q79 0 116.5 53t37.5 162q0 118 -38 171t-120 53q-153 0 -153 -213z" />
<glyph unicode="&#xb1;" horiz-adv-x="1038" d="M102 567v205h308v281h219v-281h307v-205h-307v-293h-219v293h-308zM106 0v205h826v-205h-826z" />
<glyph unicode="&#xb2;" horiz-adv-x="765" d="M82 1206q83 68 158.5 99.5t160.5 31.5q112 0 184 -67.5t72 -171.5q0 -36 -9.5 -71.5t-34 -74.5t-41 -63.5t-57 -66.5t-53 -54.5t-56.5 -54.5q-26 -26 -62 -58q10 0 31.5 1t30.5 1h278l-39 -145h-539v115q98 77 203 188q154 162 154 264q0 52 -29 79.5t-74 27.5t-82 -19 t-100 -65z" />
<glyph unicode="&#xb3;" horiz-adv-x="759" d="M82 1223q67 53 149 83.5t156 30.5q116 0 193 -61t77 -156q0 -61 -24 -100t-78 -74q123 -62 123 -180q0 -83 -56 -149t-149 -103q-108 -41 -242 -41q-30 0 -98 8l-47 131q66 -12 111 -12q150 0 231 66q53 44 53 112q0 32 -16.5 56.5t-44.5 33.5q-41 13 -121 13h-61v135h30 h24h28.5t28.5 1t30.5 3.5t26.5 6.5t26 10.5t19 15.5t14 22t4 29q0 39 -26 62.5t-76 23.5t-88.5 -17t-102.5 -59z" />
<glyph unicode="&#xb4;" horiz-adv-x="643" d="M61 1276l418 270l103 -190l-451 -209z" />
<glyph unicode="&#xb6;" horiz-adv-x="1222" d="M61 1055q0 197 125 297t344 100h529v-1708h-162v1571h-235v-1571h-164v938q-194 0 -315.5 105.5t-121.5 267.5z" />
<glyph unicode="&#xb7;" horiz-adv-x="565" d="M123 565q0 69 47 117.5t113 48.5q67 0 113 -48.5t46 -117.5q0 -68 -46.5 -117t-112.5 -49q-67 0 -113.5 49t-46.5 117z" />
<glyph unicode="&#xb8;" horiz-adv-x="585" d="M102 -356l54 110q69 -30 110 -30q25 0 44.5 15t19.5 36q0 24 -18 38.5t-48 14.5q-19 0 -59 -10l-10 43l43 164l131 -15l-29 -84q75 -8 109 -50.5t34 -104.5q0 -73 -56.5 -125t-154.5 -52q-81 0 -170 50z" />
<glyph unicode="&#xb9;" horiz-adv-x="667" d="M82 1147l266 178h123v-670h115v-143h-418v143h131v469q-89 -52 -168 -77z" />
<glyph unicode="&#xba;" horiz-adv-x="841" d="M72 479v135h698v-135h-698zM78 1157q0 186 92 296t246 110q164 0 254 -109.5t90 -298.5q0 -181 -90 -291t-252 -110q-157 0 -248.5 108.5t-91.5 294.5zM270 1169q0 -153 38 -215.5t114 -62.5q145 0 145 262q0 150 -37.5 210t-111.5 60q-77 0 -112.5 -62t-35.5 -192z" />
<glyph unicode="&#xbb;" horiz-adv-x="1040" d="M61 143l240 361l-240 362l154 103l309 -465l-309 -463zM516 143l238 361l-238 362l152 103l311 -465l-311 -463z" />
<glyph unicode="&#xbc;" horiz-adv-x="1959" d="M82 1147l266 178h123v-670h115v-143h-418v143h131v469q-89 -52 -168 -77zM352 -313l1075 1878h181l-1076 -1878h-180zM1253 145v115l226 555h188q-7 -14 -45 -115t-87.5 -221t-88.5 -188h164l8 -2v8q0 44 3.5 92t10 117.5t8.5 89.5l146 35v-330q0 -2 -2 -12q2 0 7 1t7 1 h80v-146h-80q-2 0 -7 1t-7 1q0 -3 1 -11.5t1 -12.5v-139l-170 -29v176q0 2 1 8t1 8q-3 0 -11 -1t-12 -1h-342z" />
<glyph unicode="&#xbd;" horiz-adv-x="1937" d="M82 1147l266 178h123v-670h115v-143h-418v143h131v469q-89 -52 -168 -77zM291 -313l1075 1878h180l-1075 -1878h-180zM1253 694q83 68 159 99.5t161 31.5q112 0 184 -67.5t72 -171.5q0 -51 -21 -103t-61 -102t-74 -85.5t-82 -81.5q-9 -9 -14 -13q-34 -34 -61 -58 q10 0 31 1t30 1h278l-38 -145h-539v115q98 77 203 188q153 161 153 264q0 52 -28.5 79.5t-73.5 27.5t-82 -19t-100 -65z" />
<glyph unicode="&#xbe;" horiz-adv-x="2054" d="M82 1223q67 53 149 83.5t156 30.5q116 0 193 -61t77 -156q0 -61 -24 -100t-78 -74q123 -62 123 -180q0 -83 -56 -149t-149 -103q-108 -41 -242 -41q-30 0 -98 8l-47 131q66 -12 111 -12q150 0 231 66q53 44 53 112q0 32 -16.5 56.5t-44.5 33.5q-41 13 -121 13h-61v135h30 h24h28.5t28.5 1t30.5 3.5t26.5 6.5t26 10.5t19 15.5t14 22t4 29q0 39 -26 62.5t-76 23.5t-88.5 -17t-102.5 -59zM446 -313l1076 1878h180l-1075 -1878h-181zM1348 145v115l225 555h188q-7 -14 -45 -115t-87.5 -221t-88.5 -188h164l8 -2v8q0 44 3.5 93.5t10.5 115t9 90.5 l145 35v-330q0 -2 -2 -12q2 0 7 1t7 1h80v-146h-80q-2 0 -7 1t-7 1q0 -3 1 -11.5t1 -12.5v-139l-170 -29v176q0 2 1 8t1 8q-3 0 -10.5 -1t-11.5 -1h-342z" />
<glyph unicode="&#xbf;" horiz-adv-x="944" d="M123 -70q0 55 15.5 104t34.5 79.5t51.5 62t48.5 42.5t44 30q70 48 105 114.5t35 139.5q0 15 -6 84h192q0 -1 3.5 -21.5t7 -51.5t3.5 -58q0 -180 -155 -295q-7 -5 -28 -21.5t-27.5 -21.5t-23.5 -19t-22.5 -20.5t-17.5 -19.5t-16.5 -22.5t-10.5 -22.5t-8 -26t-2 -28 q0 -75 49.5 -116.5t126.5 -41.5q64 0 131.5 28.5t110.5 64.5l98 -146q-63 -56 -162.5 -98.5t-220.5 -42.5q-154 0 -255 87.5t-101 235.5zM369 913q0 66 45 111t108 45q64 0 109 -45.5t45 -110.5q0 -63 -46 -108t-110 -45q-62 0 -106.5 45t-44.5 108z" />
<glyph unicode="&#xc0;" horiz-adv-x="1181" d="M-4 0l465 1419h272l453 -1419h-258l-115 373h-459l-114 -373h-244zM287 1683l102 191l418 -270l-70 -129zM412 569h348q-10 23 -85 298t-83 317h-2q-145 -521 -178 -615z" />
<glyph unicode="&#xc1;" horiz-adv-x="1181" d="M-4 0l465 1419h272l453 -1419h-258l-115 373h-459l-114 -373h-244zM393 1604l418 270l102 -191l-450 -208zM412 569h348q-10 23 -85 298t-83 317h-2q-145 -521 -178 -615z" />
<glyph unicode="&#xc2;" horiz-adv-x="1181" d="M-4 0l465 1419h272l453 -1419h-258l-115 373h-459l-114 -373h-244zM238 1589l356 279l360 -279l-82 -125l-282 168l-275 -168zM412 569h348q-10 23 -85 298t-83 317h-2q-145 -521 -178 -615z" />
<glyph unicode="&#xc3;" horiz-adv-x="1181" d="M-4 0l465 1419h272l453 -1419h-258l-115 373h-459l-114 -373h-244zM221 1655q56 71 109 103t137 32q42 0 77.5 -13t57.5 -29t56.5 -29t74.5 -13q31 0 56.5 11.5t39 23.5t41.5 41l74 -125q-57 -70 -111 -102.5t-137 -32.5q-42 0 -77.5 13t-57.5 29t-56.5 29t-74.5 13 q-43 0 -70 -17t-65 -59zM412 569h348q-10 23 -85 298t-83 317h-2q-145 -521 -178 -615z" />
<glyph unicode="&#xc4;" horiz-adv-x="1181" d="M-4 0l465 1419h272l453 -1419h-258l-115 373h-459l-114 -373h-244zM246 1618q0 60 40 101.5t97 41.5t97 -41.5t40 -101.5q0 -59 -40 -101t-97 -42t-97 42t-40 101zM412 569h348q-10 23 -85 298t-83 317h-2q-145 -521 -178 -615zM674 1618q0 60 40.5 101.5t98.5 41.5 q56 0 96.5 -41.5t40.5 -101.5q0 -59 -41 -101t-98 -42t-97 42t-40 101z" />
<glyph unicode="&#xc5;" horiz-adv-x="1181" d="M-4 0l465 1419h272l453 -1419h-258l-115 373h-459l-114 -373h-244zM373 1679q0 89 64 153t153 64t153 -64t64 -153t-64 -152t-153 -63t-153 63t-64 152zM412 569h348q-10 23 -85 298t-83 317h-2q-145 -521 -178 -615zM471 1679q0 -50 35 -85t84 -35t84 35t35 85t-35 85.5 t-84 35.5t-84 -35.5t-35 -85.5z" />
<glyph unicode="&#xc6;" horiz-adv-x="1726" d="M-41 0l852 1415h844l-31 -192h-518v-385h434v-195h-432v-442h567v-201h-805v377h-434l-217 -377h-260zM547 571h323v371q0 35 2 86t4 85l3 34q-9 0 -11 -2q-9 -20 -151 -274t-170 -300z" />
<glyph unicode="&#xc7;" horiz-adv-x="1161" d="M102 690q0 249 95 428q80 153 217.5 239.5t304.5 86.5q103 0 196 -29.5t156 -81.5l-108 -155q-112 79 -242 79q-181 0 -277 -155q-79 -129 -79 -385q0 -248 59 -363q100 -190 311 -190q142 0 254 90l111 -152q-165 -125 -395 -125h-17l-16 -55q73 -8 108 -50.5t35 -102.5 q0 -72 -57 -123.5t-154 -51.5q-81 0 -170 50l51 108q5 -2 16 -6.5t16 -6.5t14.5 -5.5t16 -5.5t15 -3.5t17.5 -2.5t18 -1q25 0 44.5 15.5t19.5 36.5q0 23 -18.5 37t-47.5 14q-9 0 -22 -2.5t-22 -5.5l-9 -2l-21 30l39 150q-216 57 -337.5 242t-121.5 454z" />
<glyph unicode="&#xc8;" horiz-adv-x="1021" d="M164 0v1417h786l-30 -192h-521v-387h437v-195h-433v-442h568v-201h-807zM256 1683l102 191l418 -270l-69 -129z" />
<glyph unicode="&#xc9;" horiz-adv-x="1021" d="M164 0v1417h786l-30 -192h-521v-387h437v-195h-433v-442h568v-201h-807zM297 1604l418 270l102 -191l-450 -208z" />
<glyph unicode="&#xca;" horiz-adv-x="1021" d="M164 0v1417h786l-30 -192h-521v-387h437v-195h-433v-442h568v-201h-807zM203 1589l356 279l361 -279l-82 -125l-283 168l-274 -168z" />
<glyph unicode="&#xcb;" horiz-adv-x="1021" d="M164 0v1417h786l-30 -192h-521v-387h437v-195h-433v-442h568v-201h-807zM193 1618q0 60 40 101.5t97 41.5t97 -41.5t40 -101.5q0 -59 -40 -101t-97 -42t-97 42t-40 101zM621 1618q0 60 40.5 101.5t98.5 41.5q56 0 96.5 -41.5t40.5 -101.5q0 -59 -41 -101t-98 -42t-97 42 t-40 101z" />
<glyph unicode="&#xcc;" horiz-adv-x="569" d="M-33 1688l103 190l417 -270l-69 -129zM164 0v1417h242v-1417h-242z" />
<glyph unicode="&#xcd;" horiz-adv-x="569" d="M88 1608l418 270l102 -190l-450 -209zM164 0v1417h242v-1417h-242z" />
<glyph unicode="&#xce;" horiz-adv-x="569" d="M-74 1593l357 279l360 -279l-82 -125l-282 168l-275 -168zM164 0v1417h242v-1417h-242z" />
<glyph unicode="&#xcf;" horiz-adv-x="569" d="M-68 1620q0 60 40.5 101.5t97.5 41.5t97 -41.5t40 -101.5q0 -59 -40 -101t-97 -42t-97.5 42t-40.5 101zM164 0v1417h242v-1417h-242zM360 1620q0 60 40.5 101.5t99.5 41.5q56 0 96.5 -41.5t40.5 -101.5q0 -59 -41 -101t-98 -42t-97.5 42t-40.5 101z" />
<glyph unicode="&#xd0;" horiz-adv-x="1271" d="M2 637v162h162v618h295q204 0 331.5 -44t225.5 -156q153 -178 153 -512q0 -315 -149 -506q-89 -114 -198 -156.5t-308 -42.5h-350v637h-162zM401 193h156q184 0 267 120t83 367q0 151 -19 254.5t-71 173.5q-49 67 -109.5 95t-156.5 28h-150v-432h267l-50 -162h-217v-444z " />
<glyph unicode="&#xd1;" horiz-adv-x="1288" d="M164 0v1417h266l344 -692q46 -90 88 -199t58 -166l6 7q-21 252 -21 403l-4 647h223v-1417h-247l-318 666q-137 284 -180 419l-6 -6q10 -113 14 -393l8 -686h-231zM283 1655q56 71 108.5 103t136.5 32q42 0 78 -13t58 -29t56.5 -29t74.5 -13q31 0 56.5 11.5t39 23.5 t41.5 41l74 -125q-57 -70 -111 -102.5t-137 -32.5q-42 0 -77.5 13t-57.5 29t-56.5 29t-74.5 13q-43 0 -70.5 -17.5t-65.5 -58.5z" />
<glyph unicode="&#xd2;" horiz-adv-x="1388" d="M102 709q0 345 161 537t431 192q146 0 260 -55.5t186 -155t109 -231.5t37 -289q0 -335 -153.5 -532.5t-427.5 -197.5q-119 0 -217.5 36t-169.5 101t-120 156t-72.5 201.5t-23.5 237.5zM365 723q0 -283 78.5 -425t254.5 -142q161 0 240.5 127.5t79.5 408.5 q0 136 -15.5 235t-52 175t-101 114.5t-157.5 38.5q-173 0 -250 -134t-77 -398zM401 1683l103 191l418 -270l-70 -129z" />
<glyph unicode="&#xd3;" horiz-adv-x="1388" d="M102 709q0 345 161 537t431 192q146 0 260 -55.5t186 -155t109 -231.5t37 -289q0 -335 -153.5 -532.5t-427.5 -197.5q-119 0 -217.5 36t-169.5 101t-120 156t-72.5 201.5t-23.5 237.5zM365 723q0 -283 78.5 -425t254.5 -142q161 0 240.5 127.5t79.5 408.5 q0 136 -15.5 235t-52 175t-101 114.5t-157.5 38.5q-173 0 -250 -134t-77 -398zM473 1608l418 270l102 -190l-450 -209z" />
<glyph unicode="&#xd4;" horiz-adv-x="1388" d="M102 709q0 345 161 537t431 192q146 0 260 -55.5t186 -155t109 -231.5t37 -289q0 -335 -153.5 -532.5t-427.5 -197.5q-119 0 -217.5 36t-169.5 101t-120 156t-72.5 201.5t-23.5 237.5zM340 1589l356 279l361 -279l-82 -125l-283 168l-274 -168zM365 723q0 -283 78.5 -425 t254.5 -142q161 0 240.5 127.5t79.5 408.5q0 136 -15.5 235t-52 175t-101 114.5t-157.5 38.5q-173 0 -250 -134t-77 -398z" />
<glyph unicode="&#xd5;" horiz-adv-x="1388" d="M102 709q0 345 161 537t431 192q146 0 260 -55.5t186 -155t109 -231.5t37 -289q0 -335 -153.5 -532.5t-427.5 -197.5q-119 0 -217.5 36t-169.5 101t-120 156t-72.5 201.5t-23.5 237.5zM313 1655q56 71 109 103t137 32q42 0 77.5 -13t57.5 -29t56.5 -29t74.5 -13 q31 0 56.5 11t40 23.5t41.5 41.5l73 -125q-57 -70 -111 -102.5t-137 -32.5q-42 0 -77.5 13t-57.5 29t-56.5 29t-74.5 13q-43 0 -70 -17t-65 -59zM365 723q0 -283 78.5 -425t254.5 -142q161 0 240.5 127.5t79.5 408.5q0 136 -15.5 235t-52 175t-101 114.5t-157.5 38.5 q-173 0 -250 -134t-77 -398z" />
<glyph unicode="&#xd6;" horiz-adv-x="1388" d="M102 709q0 345 161 537t431 192q146 0 260 -55.5t186 -155t109 -231.5t37 -289q0 -335 -153.5 -532.5t-427.5 -197.5q-119 0 -217.5 36t-169.5 101t-120 156t-72.5 201.5t-23.5 237.5zM342 1618q0 60 40 101.5t97 41.5t97 -41.5t40 -101.5q0 -59 -40 -101t-97 -42t-97 42 t-40 101zM365 723q0 -283 78.5 -425t254.5 -142q161 0 240.5 127.5t79.5 408.5q0 136 -15.5 235t-52 175t-101 114.5t-157.5 38.5q-173 0 -250 -134t-77 -398zM772 1618q0 60 40.5 101.5t98.5 41.5q56 0 97 -42t41 -101q0 -58 -41.5 -100.5t-98.5 -42.5t-97 42t-40 101z" />
<glyph unicode="&#xd7;" horiz-adv-x="1204" d="M164 295l289 289l-289 288l147 148l289 -289l289 289l151 -152l-288 -288l288 -289l-147 -148l-289 289l-289 -289z" />
<glyph unicode="&#xd8;" horiz-adv-x="1388" d="M102 709q0 339 159.5 534t430.5 195q169 0 307 -82l125 211l129 -74l-141 -233q99 -114 136.5 -240.5t37.5 -314.5q0 -387 -203 -578q-86 -81 -175 -116.5t-206 -35.5q-184 0 -315 82l-137 -233l-127 74l153 256q-174 210 -174 555zM365 719q0 -209 43 -348l485 807 q-84 77 -199 77q-170 0 -249.5 -128.5t-79.5 -407.5zM492 225q27 -27 85.5 -49t120.5 -22q163 0 240.5 128.5t77.5 407.5q0 205 -41 342z" />
<glyph unicode="&#xd9;" horiz-adv-x="1288" d="M154 395v1022h237v-952q0 -159 59 -224t193 -65q256 0 256 289v952h236v-1020q0 -196 -130 -309t-362 -113q-109 0 -194 22t-139.5 60t-90.5 92.5t-50.5 114.5t-14.5 131zM340 1683l102 191l418 -270l-69 -129z" />
<glyph unicode="&#xda;" horiz-adv-x="1288" d="M154 395v1022h237v-952q0 -159 59 -224t193 -65q256 0 256 289v952h236v-1020q0 -196 -130 -309t-362 -113q-109 0 -194 22t-139.5 60t-90.5 92.5t-50.5 114.5t-14.5 131zM403 1604l418 270l103 -191l-451 -208z" />
<glyph unicode="&#xdb;" horiz-adv-x="1288" d="M154 395v1022h237v-952q0 -159 59 -224t193 -65q256 0 256 289v952h236v-1020q0 -196 -130 -309t-362 -113q-109 0 -194 22t-139.5 60t-90.5 92.5t-50.5 114.5t-14.5 131zM289 1589l356 279l361 -279l-82 -125l-283 168l-274 -168z" />
<glyph unicode="&#xdc;" horiz-adv-x="1325" d="M172 395v1022h238v-952q0 -159 59 -224t193 -65q256 0 256 289v952h235v-1020q0 -196 -129.5 -309t-361.5 -113q-135 0 -233 33t-152.5 92.5t-79.5 132t-25 162.5zM334 1618q0 60 40 101.5t97 41.5t97 -41.5t40 -101.5q0 -59 -40 -101t-97 -42t-97 42t-40 101zM760 1618 q0 60 40.5 101.5t98.5 41.5q56 0 96.5 -41.5t40.5 -101.5q0 -59 -41 -101t-98 -42t-97 42t-40 101z" />
<glyph unicode="&#xdd;" horiz-adv-x="1060" d="M-41 1417h285l213 -444q18 -38 36 -81.5t28 -71t11 -29.5q19 56 78 178l217 448h275l-453 -846v-571h-243v573zM309 1608l418 270l102 -190l-450 -209z" />
<glyph unicode="&#xde;" horiz-adv-x="1136" d="M164 0v1417h233v-225h144q148 0 223 -15.5t137 -52.5q94 -56 144.5 -147.5t50.5 -208.5q0 -136 -61.5 -240t-165.5 -158.5t-232 -54.5h-240v-315h-233zM397 504h185q130 0 192 61.5t62 188.5q0 117 -58 178q-66 69 -196 69h-185v-497z" />
<glyph unicode="&#xdf;" horiz-adv-x="1202" d="M20 866v170h162v37q0 155 54 234q50 73 141 118t213 45q186 0 298.5 -89.5t112.5 -237.5q0 -126 -104 -209q-31 -25 -75 -46.5t-66.5 -36t-22.5 -34.5q0 -24 31.5 -43.5t96 -48.5t104.5 -55q155 -98 155 -291q0 -179 -120 -292.5t-314 -113.5q-108 0 -166 27l53 154 q55 -17 86 -17q98 0 156.5 63t58.5 167q0 53 -18.5 95t-48.5 69t-66.5 49.5t-72.5 43t-66 43.5t-48.5 57t-18.5 77q0 36 12 64t31.5 45.5t42.5 33t46.5 31t43 34t31.5 48t12 67.5q0 84 -46.5 129t-123.5 45q-174 0 -174 -249v-842q0 -111 -33 -207h-223q28 120 28 250v616 h-162z" />
<glyph unicode="&#xe0;" horiz-adv-x="1054" d="M92 281q0 179 130.5 269.5t381.5 90.5h70v55q0 97 -28.5 140t-115.5 43q-42 0 -89.5 -12.5t-85 -29.5t-68.5 -34.5t-49 -30.5l-17 -12l-100 162q118 74 221 107.5t219 33.5q248 0 316 -172q13 -32 15.5 -80t0.5 -174l-4 -297q-2 -107 14.5 -153.5t75.5 -86.5l-117 -143 q-104 41 -141 139q-113 -127 -285 -127t-258 85t-86 227zM225 1356l103 190l417 -270l-69 -129zM336 293q0 -74 38 -117t105 -43q53 0 103 29.5t84 79.5l4 245q-25 2 -41 2q-163 0 -228 -47t-65 -149z" />
<glyph unicode="&#xe1;" horiz-adv-x="1054" d="M92 281q0 179 130.5 269.5t381.5 90.5h70v55q0 97 -28.5 140t-115.5 43q-42 0 -89.5 -12.5t-85 -29.5t-68.5 -34.5t-49 -30.5l-17 -12l-100 162q118 74 221 107.5t219 33.5q248 0 316 -172q13 -32 15.5 -80t0.5 -174l-4 -297q-2 -107 14.5 -153.5t75.5 -86.5l-117 -143 q-104 41 -141 139q-113 -127 -285 -127t-258 85t-86 227zM299 1276l418 270l102 -190l-450 -209zM336 293q0 -74 38 -117t105 -43q53 0 103 29.5t84 79.5l4 245q-25 2 -41 2q-163 0 -228 -47t-65 -149z" />
<glyph unicode="&#xe2;" horiz-adv-x="1054" d="M92 281q0 179 130.5 269.5t381.5 90.5h70v55q0 97 -28.5 140t-115.5 43q-42 0 -89.5 -12.5t-85 -29.5t-68.5 -34.5t-49 -30.5l-17 -12l-100 162q118 74 221 107.5t219 33.5q248 0 316 -172q13 -32 15.5 -80t0.5 -174l-4 -297q-2 -107 14.5 -153.5t75.5 -86.5l-117 -143 q-104 41 -141 139q-113 -127 -285 -127t-258 85t-86 227zM168 1262l356 278l361 -278l-82 -125l-283 168l-274 -168zM336 293q0 -74 38 -117t105 -43q53 0 103 29.5t84 79.5l4 245q-25 2 -41 2q-163 0 -228 -47t-65 -149z" />
<glyph unicode="&#xe3;" horiz-adv-x="1054" d="M92 281q0 179 130.5 269.5t381.5 90.5h70v55q0 97 -28.5 140t-115.5 43q-42 0 -89.5 -12.5t-85 -29.5t-68.5 -34.5t-49 -30.5l-17 -12l-100 162q118 74 221 107.5t219 33.5q248 0 316 -172q13 -32 15.5 -80t0.5 -174l-4 -297q-2 -107 14.5 -153.5t75.5 -86.5l-117 -143 q-104 41 -141 139q-113 -127 -285 -127t-258 85t-86 227zM152 1327q56 71 108.5 103t136.5 32q42 0 78 -13t58 -29t56.5 -29t74.5 -13q31 0 56.5 11.5t39 23.5t41.5 41l73 -125q-57 -70 -110.5 -102.5t-136.5 -32.5q-42 0 -78 13t-58 29t-56.5 29t-74.5 13q-43 0 -70 -17 t-65 -59zM336 293q0 -74 38 -117t105 -43q53 0 103 29.5t84 79.5l4 245q-25 2 -41 2q-163 0 -228 -47t-65 -149z" />
<glyph unicode="&#xe4;" horiz-adv-x="1054" d="M92 281q0 179 130.5 269.5t381.5 90.5h70v55q0 97 -28.5 140t-115.5 43q-42 0 -89.5 -12.5t-85 -29.5t-68.5 -34.5t-49 -30.5l-17 -12l-100 162q118 74 221 107.5t219 33.5q248 0 316 -172q13 -32 15.5 -80t0.5 -174l-4 -297q-2 -107 14.5 -153.5t75.5 -86.5l-117 -143 q-104 41 -141 139q-113 -127 -285 -127t-258 85t-86 227zM176 1290q0 60 40 102t97 42t97.5 -42t40.5 -102q0 -59 -40.5 -101t-97.5 -42t-97 42t-40 101zM336 293q0 -74 38 -117t105 -43q53 0 103 29.5t84 79.5l4 245q-31 2 -41 2q-163 0 -228 -47t-65 -149zM604 1290 q0 60 40.5 102t98.5 42q56 0 97 -42t41 -102q0 -58 -41.5 -100.5t-98.5 -42.5t-97 42t-40 101z" />
<glyph unicode="&#xe5;" horiz-adv-x="1054" d="M92 281q0 179 130.5 269.5t381.5 90.5h70v55q0 97 -28.5 140t-115.5 43q-42 0 -89.5 -12.5t-85 -29.5t-68.5 -34.5t-49 -30.5l-17 -12l-100 162q118 74 221 107.5t219 33.5q248 0 316 -172q13 -32 15.5 -80t0.5 -174l-4 -297q-2 -107 14.5 -153.5t75.5 -86.5l-117 -143 q-104 41 -141 139q-113 -127 -285 -127t-258 85t-86 227zM315 1352q0 89 64 153t153 64t153.5 -64t64.5 -153t-64 -152t-154 -63q-89 0 -153 63t-64 152zM336 293q0 -74 38 -117t105 -43q53 0 103 29.5t84 79.5l4 245q-25 2 -41 2q-163 0 -228 -47t-65 -149zM414 1352 q0 -50 34.5 -85.5t83.5 -35.5t84 35.5t35 85.5t-35 85.5t-84 35.5t-83.5 -35.5t-34.5 -85.5z" />
<glyph unicode="&#xe6;" horiz-adv-x="1587" d="M92 279q0 179 130.5 269.5t381.5 90.5q10 0 30.5 -1t39.5 -1v59q0 58 -5.5 88t-21.5 52q-32 43 -117 43q-145 0 -311 -117l-98 160q225 141 440 141q156 0 260 -111q114 111 262 111q87 0 163.5 -29t127.5 -82q69 -74 100 -177t31 -271v-47h-616v-43q0 -122 67.5 -196.5 t184.5 -74.5q142 0 260 103l84 -135q-159 -138 -369 -138q-129 0 -217.5 44.5t-132.5 113.5q-141 -164 -330 -164q-173 0 -258.5 86t-85.5 226zM336 293q0 -75 38 -118.5t105 -43.5q54 0 103.5 29t83.5 80l4 245q-9 0 -23 1t-18 1q-164 0 -228.5 -44.5t-64.5 -149.5z M891 623h379q0 124 -47.5 198t-139.5 74t-142 -70t-50 -202z" />
<glyph unicode="&#xe7;" horiz-adv-x="935" d="M102 510q0 318 191 465q113 90 264 90q90 0 155.5 -25.5t133.5 -85.5l-113 -149q-89 80 -174 80q-111 0 -159 -95.5t-48 -297.5t68 -279q55 -63 139 -63q110 0 209 102l106 -135q-134 -140 -323 -140l-16 -55q73 -8 107 -50t34 -103q0 -73 -56.5 -124t-154.5 -51 q-82 0 -168 48l51 110q3 -1 13 -5.5t13.5 -6t12.5 -5t13.5 -5t13 -4t14.5 -3t14.5 -1.5t16.5 -1q26 0 44.5 15t18.5 37q0 23 -17.5 37t-47.5 14q-12 0 -24.5 -2.5t-19.5 -5.5l-7 -2l-23 30l39 148q-137 34 -217 143q-103 142 -103 375z" />
<glyph unicode="&#xe8;" horiz-adv-x="1050" d="M102 516q0 136 30.5 232.5t98.5 173.5q122 139 318 139q167 0 285 -107q69 -63 102 -168t33 -282v-47h-619v-17q0 -58 12 -107t39.5 -93.5t79.5 -69.5t125 -25q140 0 258 103l88 -137q-164 -138 -372 -138q-220 0 -349 147t-129 396zM223 1356l103 190l417 -270l-69 -129 zM352 623h383q0 125 -50.5 196.5t-135.5 71.5q-95 0 -146 -70.5t-51 -197.5z" />
<glyph unicode="&#xe9;" horiz-adv-x="1050" d="M102 516q0 136 30.5 232.5t98.5 173.5q122 139 318 139q167 0 285 -107q69 -63 102 -168t33 -282v-47h-619v-17q0 -58 12 -107t39.5 -93.5t79.5 -69.5t125 -25q140 0 258 103l88 -137q-164 -138 -372 -138q-220 0 -349 147t-129 396zM303 1276l418 270l102 -190 l-450 -209zM352 623h383q0 125 -50.5 196.5t-135.5 71.5q-95 0 -146 -70.5t-51 -197.5z" />
<glyph unicode="&#xea;" horiz-adv-x="1050" d="M102 516q0 136 30.5 232.5t98.5 173.5q122 139 318 139q167 0 285 -107q69 -63 102 -168t33 -282v-47h-619v-17q0 -58 12 -107t39.5 -93.5t79.5 -69.5t125 -25q140 0 258 103l88 -137q-164 -138 -372 -138q-220 0 -349 147t-129 396zM193 1262l356 278l360 -278l-82 -125 l-282 168l-275 -168zM352 623h383q0 125 -50.5 196.5t-135.5 71.5q-95 0 -146 -70.5t-51 -197.5z" />
<glyph unicode="&#xeb;" horiz-adv-x="1050" d="M102 516q0 136 30.5 232.5t98.5 173.5q122 139 318 139q167 0 285 -107q69 -63 102 -168t33 -282v-47h-619v-17q0 -58 12 -107t39.5 -93.5t79.5 -69.5t125 -25q140 0 258 103l88 -137q-164 -138 -372 -138q-220 0 -349 147t-129 396zM195 1290q0 60 40 102t97 42t97 -42 t40 -102q0 -59 -40 -101t-97 -42t-97 42t-40 101zM352 623h383q0 125 -50.5 196.5t-135.5 71.5q-95 0 -146 -70.5t-51 -197.5zM623 1290q0 60 40.5 102t98.5 42q56 0 96.5 -42t40.5 -102q0 -59 -41 -101t-98 -42t-97 42t-40 101z" />
<glyph unicode="&#xec;" horiz-adv-x="555" d="M-41 1356l102 190l418 -270l-69 -129zM164 0v1020l227 41v-1061h-227z" />
<glyph unicode="&#xed;" horiz-adv-x="555" d="M82 1276l418 270l102 -190l-450 -209zM164 0v1020l227 41v-1061h-227z" />
<glyph unicode="&#xee;" horiz-adv-x="555" d="M-78 1262l357 278l360 -278l-82 -125l-283 168l-274 -168zM164 0v1020l227 41v-1061h-227z" />
<glyph unicode="&#xef;" horiz-adv-x="555" d="M-74 1290q0 60 40 102t97 42t97.5 -42t40.5 -102q0 -59 -40.5 -101t-97.5 -42t-97 42t-40 101zM164 0v1020l227 41v-1061h-227zM354 1290q0 60 41 102t99 42q56 0 96.5 -42t40.5 -102q0 -59 -41 -101t-98 -42t-97.5 42t-40.5 101z" />
<glyph unicode="&#xf0;" d="M61 1278l138 166q150 -17 305 -94l65 75l146 -73l-74 -84q97 -67 164 -146q239 -279 239 -618q0 -250 -128 -391.5t-330 -141.5q-197 0 -325 130.5t-128 344.5q0 194 120.5 314.5t309.5 120.5q78 0 156 -19q-68 115 -168 199q-18 16 -53 43l-62 -72l-145 74l71 82 q-143 73 -301 90zM381 442q0 -121 58.5 -193.5t158.5 -72.5q99 0 152 84.5t53 226.5q0 22 -3 50.5t-8 61.5t-6 40q-34 20 -93 34.5t-113 14.5q-93 0 -146 -64.5t-53 -181.5z" />
<glyph unicode="&#xf1;" horiz-adv-x="1118" d="M125 1008l205 57q37 -70 37 -147q86 73 161 108t156 35q124 0 197 -74t73 -213v-774h-223v688q0 104 -26.5 142t-92.5 38q-49 0 -112.5 -32.5t-114.5 -83.5v-752h-221v762q0 146 -39 246zM188 1327q56 71 109 103t137 32q42 0 77.5 -13t57.5 -29t56.5 -29t74.5 -13 q31 0 56.5 11t40 23.5t41.5 41.5l73 -125q-57 -70 -110.5 -102.5t-136.5 -32.5q-42 0 -78 13t-58 29t-56.5 29t-74.5 13q-43 0 -70 -17t-65 -59z" />
<glyph unicode="&#xf2;" horiz-adv-x="1099" d="M92 516q0 249 123.5 397t329.5 148q218 0 340.5 -148.5t122.5 -398.5t-124 -395.5t-335 -145.5q-210 0 -333.5 147t-123.5 396zM219 1356l103 190l417 -270l-69 -129zM342 530q0 -147 25.5 -234.5t70 -121t115.5 -33.5q207 0 207 369q0 142 -27 228.5t-72 119.5t-114 33 q-107 0 -156 -86t-49 -275z" />
<glyph unicode="&#xf3;" horiz-adv-x="1099" d="M92 516q0 249 123.5 397t329.5 148q218 0 340.5 -148.5t122.5 -398.5t-124 -395.5t-335 -145.5q-210 0 -333.5 147t-123.5 396zM319 1276l418 270l103 -190l-451 -209zM342 530q0 -147 25.5 -234.5t70 -121t115.5 -33.5q207 0 207 369q0 142 -27 228.5t-72 119.5t-114 33 q-107 0 -156 -86t-49 -275z" />
<glyph unicode="&#xf4;" horiz-adv-x="1099" d="M92 516q0 249 123.5 397t329.5 148q218 0 340.5 -148.5t122.5 -398.5t-124 -395.5t-335 -145.5q-210 0 -333.5 147t-123.5 396zM188 1262l357 278l360 -278l-82 -125l-282 168l-275 -168zM342 530q0 -147 25.5 -234.5t70 -121t115.5 -33.5q207 0 207 369q0 142 -27 228.5 t-72 119.5t-114 33q-107 0 -156 -86t-49 -275z" />
<glyph unicode="&#xf5;" horiz-adv-x="1099" d="M92 516q0 249 123.5 397t329.5 148q218 0 340.5 -148.5t122.5 -398.5t-124 -395.5t-335 -145.5q-210 0 -333.5 147t-123.5 396zM178 1327q56 71 109 103t137 32q42 0 77.5 -13t57.5 -29t56.5 -29t74.5 -13q31 0 56.5 11.5t39 23.5t41.5 41l74 -125q-57 -70 -111 -102.5 t-137 -32.5q-42 0 -77.5 13t-57.5 29t-56.5 29t-74.5 13q-43 0 -70 -17t-65 -59zM342 530q0 -147 25.5 -234.5t70 -121t115.5 -33.5q207 0 207 369q0 142 -27 228.5t-72 119.5t-114 33q-107 0 -156 -86t-49 -275z" />
<glyph unicode="&#xf6;" horiz-adv-x="1099" d="M92 516q0 249 123.5 397t329.5 148q218 0 340.5 -148.5t122.5 -398.5t-124 -395.5t-335 -145.5q-210 0 -333.5 147t-123.5 396zM193 1290q0 60 40 102t97 42t97 -42t40 -102q0 -59 -40 -101t-97 -42t-97 42t-40 101zM342 530q0 -147 25.5 -234.5t70 -121t115.5 -33.5 q207 0 207 369q0 142 -27 228.5t-72 119.5t-114 33q-107 0 -156 -86t-49 -275zM618 1290q0 60 41 102t99 42q56 0 96.5 -42t40.5 -102q0 -59 -41 -101t-98 -42t-97.5 42t-40.5 101z" />
<glyph unicode="&#xf7;" horiz-adv-x="1239" d="M102 451v190h1035v-190h-1035zM457 129q0 68 46 116.5t113 47.5q64 0 110 -48t46 -116q0 -66 -47 -112t-113 -46q-65 0 -110 46t-45 112zM459 963q0 67 45.5 114t111.5 49q65 0 111.5 -46.5t46.5 -112.5q0 -67 -47 -113.5t-113 -46.5q-64 0 -109.5 45.5t-45.5 110.5z" />
<glyph unicode="&#xf8;" horiz-adv-x="1097" d="M92 516q0 249 123 397t330 148q123 0 225 -51l113 186l108 -63l-123 -205q138 -144 138 -414q0 -253 -122.5 -397t-336.5 -144q-127 0 -217 56l-113 -187l-108 64l118 200q-135 150 -135 410zM340 530q0 -90 22 -202l310 518q-54 45 -125 45q-105 0 -156 -86t-51 -275z M424 186q61 -45 129 -45q106 0 155.5 88.5t49.5 280.5q0 107 -23 197z" />
<glyph unicode="&#xf9;" horiz-adv-x="1110" d="M154 317v703l221 41v-694q0 -43 3 -73.5t12 -60.5t25 -48.5t44 -30t67 -11.5q57 0 117 40t86 96v741l217 41v-780q0 -44 6.5 -81t16 -59.5t19 -38.5t16.5 -22l6 -6l-156 -107q-65 48 -90 129q-112 -127 -295 -127q-85 0 -151.5 28t-106.5 75q-31 37 -44 93t-13 152z M279 1356l102 190l418 -270l-70 -129z" />
<glyph unicode="&#xfa;" horiz-adv-x="1110" d="M154 317v703l221 41v-694q0 -43 3 -73.5t12 -60.5t25 -48.5t44 -30t67 -11.5q57 0 117 40t86 96v741l217 41v-780q0 -44 6.5 -81t16 -59.5t19 -38.5t16.5 -22l6 -6l-156 -107q-65 48 -90 129q-112 -127 -295 -127q-85 0 -151.5 28t-106.5 75q-31 37 -44 93t-13 152z M319 1276l418 270l103 -190l-451 -209z" />
<glyph unicode="&#xfb;" horiz-adv-x="1110" d="M154 317v703l221 41v-694q0 -43 3 -73.5t12 -60.5t25 -48.5t44 -30t67 -11.5q57 0 117 40t86 96v741l217 41v-780q0 -44 6.5 -81t16 -59.5t19 -38.5t16.5 -22l6 -6l-156 -107q-65 48 -90 129q-112 -127 -295 -127q-85 0 -151.5 28t-106.5 75q-31 37 -44 93t-13 152z M195 1262l356 278l360 -278l-82 -125l-282 168l-275 -168z" />
<glyph unicode="&#xfc;" horiz-adv-x="1110" d="M154 317v703l221 41v-694q0 -43 3 -73.5t12 -60.5t25 -48.5t44 -30t67 -11.5q57 0 117 40t86 96v741l217 41v-780q0 -44 6.5 -81t16 -59.5t19 -38.5t16.5 -22l6 -6l-156 -107q-65 48 -90 129q-112 -127 -295 -127q-85 0 -151.5 28t-106.5 75q-31 37 -44 93t-13 152z M201 1290q0 60 40 102t97 42t97 -42t40 -102q0 -59 -40 -101t-97 -42t-97 42t-40 101zM629 1290q0 60 40.5 102t98.5 42q56 0 96.5 -42t40.5 -102q0 -59 -41 -101t-98 -42t-97 42t-40 101z" />
<glyph unicode="&#xfd;" horiz-adv-x="989" d="M10 1020l230 39l190 -631q7 -27 20 -81t24.5 -101.5t12.5 -50.5q38 151 78 280l172 561h242l-367 -1059q-35 -103 -65.5 -166t-76 -118.5t-108.5 -86.5t-153 -48l-74 145q113 31 176 93t105 204h-72q-29 118 -98 322zM305 1276l418 270l102 -190l-450 -209z" />
<glyph unicode="&#xfe;" horiz-adv-x="1140" d="M137 1458l234 51q16 -99 16 -206v-242q0 -30 -1.5 -54.5t-3.5 -34.5l-1 -9l8 -2q103 100 246 100q186 0 294.5 -141.5t108.5 -384.5q0 -248 -115.5 -403t-297.5 -155q-146 0 -244 113v-475l-217 -53v1646q0 164 -27 250zM389 260q86 -90 193 -90t154.5 84t47.5 278 q0 60 -5 107t-18 91.5t-35 74.5t-57.5 47.5t-82.5 17.5q-113 0 -197 -104v-506z" />
<glyph unicode="&#xff;" horiz-adv-x="989" d="M10 1020l230 39l190 -631l57 -233q39 153 78 280l172 561h242l-367 -1059q-35 -103 -65.5 -166t-76 -118.5t-108.5 -86.5t-153 -48l-74 145q113 31 176 93t105 204h-72q-29 118 -98 322zM164 1290q0 60 40 102t97 42t97 -42t40 -102q0 -59 -40 -101t-97 -42t-97 42 t-40 101zM592 1290q0 60 40.5 102t98.5 42q56 0 96.5 -42t40.5 -102q0 -59 -41 -101t-98 -42t-97 42t-40 101z" />
<glyph unicode="&#x152;" horiz-adv-x="1742" d="M102 711q0 302 150 499q85 110 206.5 159.5t284.5 49.5l127 -2h787l-31 -192h-516v-387h430v-195h-430v-442h582v-201h-865q-216 0 -317 23.5t-199 109.5q-209 185 -209 578zM379 735q0 -274 78 -409q83 -142 254 -142q28 0 61.5 3.5t72.5 9.5t40 6v995l-37 6 q-36 6 -68.5 9.5t-62.5 3.5q-137 0 -213 -68q-125 -109 -125 -414z" />
<glyph unicode="&#x153;" horiz-adv-x="1679" d="M92 516q0 251 125 398t328 147q199 0 323 -137q116 139 310 139q206 0 312.5 -137t106.5 -396v-73h-616v-33q0 -136 69 -208.5t185 -72.5q140 0 258 103l86 -135q-178 -138 -371 -138q-103 0 -191.5 36t-142.5 106q-120 -142 -325 -142q-213 0 -335 148t-122 395z M342 530q0 -206 51 -297.5t160 -91.5q77 0 124.5 50t65 128t17.5 191q0 142 -27 228.5t-72 119.5t-114 33q-105 0 -155 -85t-50 -276zM983 623h383q0 128 -48.5 200t-139.5 72q-92 0 -143.5 -70t-51.5 -202z" />
<glyph unicode="&#x178;" horiz-adv-x="1060" d="M-41 1417h285l213 -444q19 -40 38 -85.5t28 -71.5l9 -25q41 100 78 178l217 448h275l-453 -846v-571h-243v573zM176 1618q0 60 40 101.5t97 41.5t97.5 -41.5t40.5 -101.5q0 -59 -40.5 -101t-97.5 -42t-97 42t-40 101zM604 1618q0 60 40.5 101.5t98.5 41.5q56 0 97 -42 t41 -101q0 -58 -41.5 -100.5t-98.5 -42.5t-97 42t-40 101z" />
<glyph unicode="&#x2c6;" horiz-adv-x="819" d="M51 1262l357 278l360 -278l-82 -125l-283 168l-274 -168z" />
<glyph unicode="&#x2dc;" horiz-adv-x="804" d="M41 1327q56 71 109 103t137 32q42 0 77.5 -13t57.5 -29t56.5 -29t74.5 -13q31 0 56.5 11.5t39 23.5t41.5 41l74 -125q-57 -70 -111 -102.5t-137 -32.5q-42 0 -77.5 13t-57.5 29t-56.5 29t-74.5 13q-43 0 -70 -17t-65 -59z" />
<glyph unicode="&#x2000;" horiz-adv-x="948" />
<glyph unicode="&#x2001;" horiz-adv-x="1896" />
<glyph unicode="&#x2002;" horiz-adv-x="948" />
<glyph unicode="&#x2003;" horiz-adv-x="1896" />
<glyph unicode="&#x2004;" horiz-adv-x="632" />
<glyph unicode="&#x2005;" horiz-adv-x="474" />
<glyph unicode="&#x2006;" horiz-adv-x="316" />
<glyph unicode="&#x2007;" horiz-adv-x="316" />
<glyph unicode="&#x2008;" horiz-adv-x="237" />
<glyph unicode="&#x2009;" horiz-adv-x="379" />
<glyph unicode="&#x200a;" horiz-adv-x="105" />
<glyph unicode="&#x2010;" horiz-adv-x="653" d="M102 453v209h449v-209h-449z" />
<glyph unicode="&#x2011;" horiz-adv-x="653" d="M102 453v209h449v-209h-449z" />
<glyph unicode="&#x2012;" horiz-adv-x="653" d="M102 453v209h449v-209h-449z" />
<glyph unicode="&#x2013;" horiz-adv-x="1193" d="M102 477v178h990v-178h-990z" />
<glyph unicode="&#x2014;" horiz-adv-x="1656" d="M102 477v178h1452v-178h-1452z" />
<glyph unicode="&#x2018;" horiz-adv-x="546" d="M102 1100q0 120 75 220.5t196 143.5l82 -102q-62 -20 -101 -60t-39 -81q0 -15 14 -26t33.5 -20.5t39 -23.5t33.5 -43.5t14 -71.5q0 -68 -47.5 -116t-114.5 -48q-80 0 -132.5 64.5t-52.5 163.5z" />
<glyph unicode="&#x2019;" horiz-adv-x="546" d="M92 958q62 20 100.5 60.5t38.5 85.5q0 9 -14 22t-31 21q-88 38 -88 137q0 69 47 116.5t115 47.5q80 0 132 -63.5t52 -161.5q0 -129 -79 -234q-71 -90 -189 -131z" />
<glyph unicode="&#x201a;" horiz-adv-x="546" d="M92 -193q62 20 100.5 61t38.5 85q0 10 -12 22t-33 21q-40 15 -64 51.5t-24 85.5q0 69 47 116.5t115 47.5q80 0 132 -63t52 -162q0 -127 -74.5 -225t-195.5 -142z" />
<glyph unicode="&#x201c;" horiz-adv-x="985" d="M102 1100q0 122 80 229q73 93 189 135l84 -102q-64 -19 -103 -58.5t-39 -84.5q0 -13 14 -23.5t34 -21t40 -25t34 -44t14 -69.5q0 -68 -47.5 -116t-116.5 -48q-80 0 -131.5 64t-51.5 164zM543 1100q0 128 78 229q69 91 190 135l82 -102q-62 -19 -100.5 -58.5t-38.5 -84.5 q0 -7 3 -12.5t11.5 -12t13.5 -9.5t19.5 -11t19.5 -11q68 -37 68 -127q0 -68 -48.5 -116t-115.5 -48q-80 0 -131 64t-51 164z" />
<glyph unicode="&#x201d;" horiz-adv-x="987" d="M92 958q64 20 102.5 60.5t38.5 85.5q0 8 -15 22.5t-30 20.5q-88 36 -88 137q0 69 46.5 116.5t115.5 47.5q80 0 132 -63.5t52 -161.5q0 -124 -75 -224.5t-195 -140.5zM532 958q64 20 102 60.5t38 85.5q0 8 -15 22.5t-28 20.5q-88 37 -88 137q0 69 46 116.5t115 47.5 q80 0 131.5 -63.5t51.5 -161.5q0 -130 -74.5 -227t-194.5 -138z" />
<glyph unicode="&#x201e;" horiz-adv-x="987" d="M92 -193q62 20 100.5 61t38.5 85q0 10 -12 22t-33 21q-40 15 -64 51.5t-24 85.5q0 69 47 116.5t115 47.5q80 0 132 -63t52 -162q0 -127 -74.5 -225t-195.5 -142zM532 -193q62 20 101 61.5t39 84.5q0 10 -12 22t-33 21q-40 15 -64 51.5t-24 85.5q0 69 46.5 116.5 t114.5 47.5q80 0 132.5 -63t52.5 -162q0 -127 -75 -225t-196 -142z" />
<glyph unicode="&#x2022;" horiz-adv-x="1003" d="M143 727q0 151 105 257t254 106t253.5 -106t104.5 -257t-104.5 -256.5t-253.5 -105.5t-254 105.5t-105 256.5z" />
<glyph unicode="&#x2026;" horiz-adv-x="1560" d="M123 137q0 68 46 115t112 47q68 0 115.5 -47.5t47.5 -114.5q0 -69 -47 -118.5t-112 -49.5q-67 0 -114.5 49.5t-47.5 118.5zM621 137q0 68 45.5 115t111.5 47q68 0 115 -47.5t47 -114.5q0 -69 -47 -118.5t-113 -49.5q-67 0 -113 49t-46 119zM1116 137q0 67 47 114.5 t113 47.5t114 -47.5t48 -114.5q0 -69 -47.5 -118.5t-112.5 -49.5q-67 0 -114.5 49.5t-47.5 118.5z" />
<glyph unicode="&#x202f;" horiz-adv-x="379" />
<glyph unicode="&#x2039;" horiz-adv-x="583" d="M61 504l310 465l151 -103l-235 -362l235 -361l-151 -102z" />
<glyph unicode="&#x203a;" horiz-adv-x="585" d="M61 143l240 361l-240 362l154 103l309 -465l-309 -463z" />
<glyph unicode="&#x205f;" horiz-adv-x="474" />
<glyph unicode="&#x20ac;" horiz-adv-x="1284" d="M82 457v178h207q0 9 -1 26.5t-1 26.5q0 37 4 103h-209v178h240q20 76 59 149q80 153 218.5 239.5t303.5 86.5q175 0 291 -70l-47 -196q-109 79 -242 79q-91 0 -163.5 -44t-118.5 -126q-34 -67 -48 -118h455v-178h-479q-2 -25 -2 -76q0 -15 1 -41.5t1 -38.5h479v-178h-459 q8 -34 33 -95q45 -99 127.5 -149.5t188.5 -50.5q140 0 254 90l49 -191q-78 -44 -148.5 -64t-177.5 -20q-277 0 -448 205q-95 118 -136 275h-231z" />
<glyph unicode="&#x2122;" horiz-adv-x="2017" d="M61 1284v166h687v-166h-252v-678h-183v678h-252zM930 606v844h260l223 -594l221 594h260v-844h-182v617h-10l-232 -617h-118l-230 613l-10 2v-615h-182z" />
<glyph unicode="&#xe000;" horiz-adv-x="1054" d="M0 0v1055h1055v-1055h-1055z" />
<glyph unicode="&#xfb01;" horiz-adv-x="1165" d="M68 881v155h98q0 17 -2 78.5t-2 75.5q0 153 86 234t229 81q135 0 221 -49l-73 -143q-61 26 -113 26q-59 0 -93 -38.5t-34 -106.5v-158h619v-1036h-230v881h-387v-881h-223v881h-96zM741 1339q0 63 44 107.5t106 44.5t104.5 -44t42.5 -108q0 -62 -43 -105.5t-106 -43.5 q-61 0 -104.5 43.5t-43.5 105.5z" />
<glyph unicode="&#xfb02;" horiz-adv-x="1159" d="M68 881v155h98q-6 125 -6 154q0 154 85.5 234.5t229.5 80.5q140 0 219 -49l-73 -141q-58 26 -109 26q-62 0 -95.5 -38.5t-33.5 -108.5v-158h260l-59 -155h-197v-881h-223v881h-96zM745 1456l232 51q18 -71 18 -284v-879q0 -101 4.5 -134.5t18.5 -51.5q9 -14 31 -19.5 t43 2.5l36 -139q-64 -25 -135 -25q-47 0 -84 12.5t-60.5 29.5t-40 46t-24.5 52t-12.5 57t-5 51t-0.5 45v883q0 174 -21 303z" />
</font>
</defs>
</svg>
